<svg xmlns="http://www.w3.org/2000/svg" xmlns:xlink="http://www.w3.org/1999/xlink" width="150" zoomAndPan="magnify" viewBox="0 0 112.5 112.499997" height="150" preserveAspectRatio="xMidYMid meet" version="1.0"><defs><clipPath id="1215ec1d8b"><path d="M 51 24.097656 L 62 24.097656 L 62 35 L 51 35 Z M 51 24.097656 " clip-rule="nonzero"/></clipPath><clipPath id="59eaf44ccd"><path d="M 24.039062 78 L 88.539062 78 L 88.539062 88.597656 L 24.039062 88.597656 Z M 24.039062 78 " clip-rule="nonzero"/></clipPath></defs><g clip-path="url(#1215ec1d8b)"><path fill="#2bc286" d="M 60.179688 34.097656 L 52.402344 34.097656 C 52.210938 34.097656 52.035156 34.050781 51.867188 33.957031 C 51.703125 33.867188 51.570312 33.738281 51.46875 33.578125 C 51.371094 33.414062 51.316406 33.238281 51.304688 33.050781 C 51.296875 32.859375 51.335938 32.679688 51.421875 32.507812 L 55.308594 24.707031 C 55.511719 24.300781 55.839844 24.097656 56.289062 24.097656 C 56.742188 24.097656 57.070312 24.300781 57.269531 24.707031 L 61.160156 32.507812 C 61.246094 32.679688 61.285156 32.859375 61.277344 33.050781 C 61.265625 33.238281 61.210938 33.414062 61.113281 33.578125 C 61.011719 33.738281 60.878906 33.867188 60.714844 33.957031 C 60.546875 34.050781 60.371094 34.097656 60.179688 34.097656 Z M 60.179688 34.097656 " fill-opacity="1" fill-rule="nonzero"/></g><path fill="#2bc286" d="M 66.417969 46.585938 L 46.164062 46.585938 C 45.976562 46.585938 45.796875 46.542969 45.632812 46.449219 C 45.464844 46.355469 45.332031 46.230469 45.234375 46.066406 C 45.132812 45.90625 45.078125 45.730469 45.070312 45.539062 C 45.0625 45.347656 45.101562 45.167969 45.1875 45 L 48.054688 39.246094 C 48.257812 38.839844 48.585938 38.640625 49.039062 38.640625 L 63.546875 38.640625 C 64 38.640625 64.324219 38.839844 64.527344 39.246094 L 67.398438 45 C 67.484375 45.167969 67.523438 45.347656 67.511719 45.539062 C 67.503906 45.730469 67.449219 45.90625 67.351562 46.066406 C 67.25 46.230469 67.117188 46.355469 66.953125 46.449219 C 66.785156 46.542969 66.609375 46.585938 66.417969 46.585938 Z M 66.417969 46.585938 " fill-opacity="1" fill-rule="nonzero"/><path fill="#2bc286" d="M 73.21875 60.210938 L 39.363281 60.210938 C 39.171875 60.214844 38.996094 60.167969 38.828125 60.074219 C 38.664062 59.980469 38.53125 59.855469 38.429688 59.691406 C 38.332031 59.53125 38.277344 59.355469 38.269531 59.164062 C 38.257812 58.972656 38.296875 58.792969 38.382812 58.625 L 41.820312 51.738281 C 42.023438 51.332031 42.347656 51.128906 42.800781 51.128906 L 69.78125 51.128906 C 70.234375 51.128906 70.558594 51.332031 70.761719 51.738281 L 74.199219 58.625 C 74.285156 58.792969 74.320312 58.972656 74.3125 59.164062 C 74.304688 59.355469 74.25 59.53125 74.152344 59.691406 C 74.050781 59.855469 73.917969 59.980469 73.753906 60.074219 C 73.585938 60.167969 73.410156 60.214844 73.21875 60.210938 Z M 73.21875 60.210938 " fill-opacity="1" fill-rule="nonzero"/><path fill="#2bc286" d="M 80.019531 73.839844 L 32.5625 73.839844 C 32.371094 73.839844 32.195312 73.792969 32.027344 73.699219 C 31.863281 73.605469 31.730469 73.480469 31.628906 73.316406 C 31.53125 73.15625 31.476562 72.980469 31.46875 72.789062 C 31.460938 72.601562 31.496094 72.421875 31.582031 72.25 L 35.019531 65.363281 C 35.222656 64.957031 35.546875 64.753906 36 64.753906 L 76.582031 64.753906 C 77.035156 64.753906 77.359375 64.957031 77.5625 65.363281 L 81 72.25 C 81.085938 72.421875 81.121094 72.601562 81.113281 72.789062 C 81.105469 72.980469 81.050781 73.15625 80.953125 73.316406 C 80.851562 73.480469 80.71875 73.605469 80.554688 73.699219 C 80.386719 73.792969 80.210938 73.839844 80.019531 73.839844 Z M 80.019531 73.839844 " fill-opacity="1" fill-rule="nonzero"/><g clip-path="url(#59eaf44ccd)"><path fill="#2bc286" d="M 87.386719 88.597656 L 25.195312 88.597656 C 25.003906 88.597656 24.828125 88.554688 24.660156 88.460938 C 24.496094 88.367188 24.363281 88.242188 24.261719 88.078125 C 24.164062 87.917969 24.109375 87.742188 24.101562 87.550781 C 24.09375 87.363281 24.128906 87.179688 24.214844 87.011719 L 28.21875 78.988281 C 28.421875 78.585938 28.75 78.386719 29.195312 78.386719 L 83.386719 78.386719 C 83.835938 78.386719 84.164062 78.589844 84.363281 78.996094 L 88.371094 87.019531 C 88.453125 87.1875 88.488281 87.367188 88.480469 87.558594 C 88.472656 87.746094 88.417969 87.921875 88.316406 88.082031 C 88.214844 88.242188 88.082031 88.371094 87.917969 88.460938 C 87.753906 88.554688 87.574219 88.597656 87.386719 88.597656 Z M 87.386719 88.597656 " fill-opacity="1" fill-rule="nonzero"/></g></svg>